inDegrees=no
num_controls=7
num_derivatives=13
num_iterations=221
num_multipliers=7
num_parameters=0
num_slacks=7
num_states=26
objective=6.116636
objective_accelerations=0.518463
objective_balance=0.035316
objective_effort=0.482930
objective_height=5.055431
objective_ligament=0.024497
solver_duration=1902.922794
status=Solve_Succeeded
success=true
DataType=double
version=3
OpenSimVersion=4.4-2022-07-23-0e9fedc
endheader
time	/jointset/ground_pelvis/pelvis_tilt/value	/jointset/ground_pelvis/pelvis_tx/value	/jointset/ground_pelvis/pelvis_ty/value	/jointset/hip_r/hip_flexion_r/value	/jointset/hip_r/hip_adduction_r/value	/jointset/hip_r/hip_rotation_r/value	/jointset/back/lumbar_extension/value	/jointset/patellofemoral_r/patellar_flexion_r/value	/jointset/knee_r/knee_flexion_r/value	/jointset/knee_r/knee_adduction_r/value	/jointset/knee_r/knee_rotation_r/value	/jointset/ankle_r/ankle_angle_r/value	/jointset/subtalar_r/subtalar_angle_r/value	/jointset/ground_pelvis/pelvis_tilt/speed	/jointset/ground_pelvis/pelvis_tx/speed	/jointset/ground_pelvis/pelvis_ty/speed	/jointset/hip_r/hip_flexion_r/speed	/jointset/hip_r/hip_adduction_r/speed	/jointset/hip_r/hip_rotation_r/speed	/jointset/back/lumbar_extension/speed	/jointset/patellofemoral_r/patellar_flexion_r/speed	/jointset/knee_r/knee_flexion_r/speed	/jointset/knee_r/knee_adduction_r/speed	/jointset/knee_r/knee_rotation_r/speed	/jointset/ankle_r/ankle_angle_r/speed	/jointset/subtalar_r/subtalar_angle_r/speed	/forceset/tau_hip_flexion_r	/forceset/tau_hip_adduction_r	/forceset/tau_hip_rotation_r	/forceset/tau_knee_flexion_r	/forceset/tau_ankle_angle_r	/forceset/tau_subtalar_angle_r	/forceset/tau_lumbar_extension	lambda_cid13_p0	lambda_cid14_p0	lambda_cid14_p1	lambda_cid14_p2	lambda_cid14_p3	lambda_cid14_p4	lambda_cid14_p5	/jointset/ground_pelvis/pelvis_tilt/accel	/jointset/ground_pelvis/pelvis_tx/accel	/jointset/ground_pelvis/pelvis_ty/accel	/jointset/hip_r/hip_flexion_r/accel	/jointset/hip_r/hip_adduction_r/accel	/jointset/hip_r/hip_rotation_r/accel	/jointset/back/lumbar_extension/accel	/jointset/patellofemoral_r/patellar_flexion_r/accel	/jointset/knee_r/knee_flexion_r/accel	/jointset/knee_r/knee_adduction_r/accel	/jointset/knee_r/knee_rotation_r/accel	/jointset/ankle_r/ankle_angle_r/accel	/jointset/subtalar_r/subtalar_angle_r/accel	gamma_cid13_p0	gamma_cid14_p0	gamma_cid14_p1	gamma_cid14_p2	gamma_cid14_p3	gamma_cid14_p4	gamma_cid14_p5
1	-0.2436874335125916	0.01430514066849327	0.7015267738716956	1.293068367082857	-0.2463766172465336	-5.028540742911965e-06	-0.4363236695474501	1.292202846027427	1.292202846027282	0.01842150272432702	0.1745326613141729	0.4363138975313955	0.08493348765137974	-0.0001754512446375963	0.003932154259880276	0.01477040243976543	-0.0402298743674423	0.0005862435079601375	-0.01291863485045215	0.001635800149354498	-0.048241397538569	-0.04824139753856747	-0.0006421834886463235	-7.397544051204431e-06	-0.009602844759680346	-0.002129895184236513	-0.2429130240284108	0.008543056820107009	0.01808089623849412	-0.485986026361697	-0.01597030847024381	0.008678357288757354	0.2745003155907518	-0.09004449573221429	-53.37113416556463	-4.687692078268892	0.1927807895346159	18.89857808126247	-790.8416371160852	68.00686606581245	1.108612848449439	0.04803254386402386	1.569579740995211	-4.797059270584118	0.01890973334470886	-0.9671331856687714	0.1779086682321165	-5.002938456576728	-5.002938456576785	0.3710153337229431	0.007950774727159873	-1.546530544751136	-0.4980158554885781	9.758551693929315e-10	-3.263254874999242e-09	8.438082548166776e-09	9.253002071711853e-09	7.612131837364183e-09	-4.01977540723823e-09	6.989026442450357e-09
1.01	-0.2436347705622479	0.0143469962820382	0.7017528009576023	1.292427267495779	-0.2463697469691266	-0.000181812431888442	-0.4362962761486536	1.291470486660552	1.291470486660424	0.0184341913161998	0.1745325838539308	0.4361407314260891	0.08488744880380782	0.0106692140599896	0.004454425456477467	0.03043265887513331	-0.087973200842481	0.0007874169328702448	-0.02243720530337312	0.003985496697673532	-0.09823978828369805	-0.09823978828368854	0.003184334221361718	-7.871226638074682e-06	-0.02501739562020434	-0.007072699786330948	-0.2437522080070407	0.00870889757308251	0.01808865774194309	-0.4853065590217798	-0.01661659300972497	0.008737966428879199	0.2753518425963808	-0.09382913383360926	-53.58868204956098	-4.695529639697694	0.1890441175725361	18.84728448083557	-791.2165689359148	67.93683786395897	1.066569965059396	0.05664394663209867	1.564193799316199	-4.760442510361169	0.0206653468586352	-0.9440783169948314	0.2848927112030775	-4.999686611241889	-4.999686611240651	0.3891369210016812	-0.00400829790302569	-1.536971603430481	-0.4916309077258485	1.794963318089537e-09	-2.174522598742028e-09	2.274960033206073e-08	1.659834143014961e-08	4.966485480430356e-09	-7.047089000841105e-09	2.328611737120476e-08
1.02	-0.2434748256401403	0.01439453851536399	0.7021353796487642	1.291309240009068	-0.2463608761175119	-0.0004537538959414378	-0.4362411072717573	1.290237863940674	1.290237863940564	0.01848527847144207	0.174532509285246	0.4358138089628314	0.08479213828118372	0.02128094310821919	0.005069478216049357	0.04608072349083257	-0.1356154542934196	0.0009863583495599414	-0.03195014943193751	0.007190895768844983	-0.1482940681392647	-0.1482940681392466	0.007037529185848308	-6.819235281699428e-06	-0.04035411634982623	-0.01198423019466428	-0.2445913919856855	0.008874738326055889	0.0180964192454077	-0.4846270916818641	-0.01726287754920547	0.008797575568997299	0.2762033696019962	-0.1005732801573078	-53.81739924027833	-4.703286631944754	0.1829687946656377	18.82282466043131	-791.7635988777251	67.87862860598941	1.062025597169908	0.06658885645896979	1.56674137706149	-4.776844665764106	0.01846333170063218	-0.9660079207974475	0.349049172802581	-5.014116278664253	-5.014116278664177	0.3763507846186512	0.008255909515792694	-1.530964518570707	-0.4917610167363453	2.425158845003832e-09	-1.416222279467551e-09	3.445821317999816e-08	2.430255956101383e-08	3.236681047022972e-09	-8.731935632706339e-09	3.547831678339918e-08
1.03	-0.2432099270644188	0.0144487223930085	0.702674285829414	1.289715422246262	-0.2463500228980725	-0.0008207850956106029	-0.4361495915016212	1.288504571973992	1.28850457197391	0.01857500108033705	0.1745324583921595	0.4353339430751458	0.08464790441320806	0.03165770718775141	0.005785583872285813	0.06168961079649121	-0.1831159704613565	0.001184585403895779	-0.04145211770355524	0.01125965526487368	-0.1983580552597206	-0.198358055259703	0.01090974030281921	-3.806217343434779e-06	-0.05560252168556555	-0.01685338346792243	-0.2451151148675131	0.008971354295172415	0.01812380949614556	-0.4836792190675946	-0.01759519405635756	0.008828632021260486	0.27680743011328	-0.1108096759038958	-53.9160872182653	-4.698120947137992	0.1719136838411587	18.6836140073721	-791.8339325328346	67.80537728443423	1.019343005286957	0.07686469696175374	1.556325040176922	-4.731835220176529	0.02055388352055931	-0.9416954504458824	0.4578988889288248	-5.00160005260901	-5.00160005260913	0.3930725406769317	-0.00373387120761142	-1.519299703571062	-0.4831072575280134	3.053426692104021e-09	-6.612937148561645e-10	4.614026577348705e-08	3.201043972016812e-08	1.516221939365863e-09	-1.040308362210485e-08	4.762862954746542e-08
